#!OML:ASF I:\Random Stuff\random\construction\7_22_03\Session 2\subj1.ASF
:FULLY-SPECIFIED
:DEGREES
832
root 5.4929 17.6914 -9.2822 -2.29804 -60.8604 6.19228
lowerback 4.03558 -1.8186 1.3473
upperback -1.56205 -2.25525 3.65094
thorax -3.78124 -1.12389 3.18237
lowerneck -22.2041 -6.14906 -5.42683
upperneck 27.1991 -10.2688 9.28845
head 13.7598 -3.89487 2.65174
rclavicle -1.46107e-014 4.77083e-015
rhumerus -25.0488 44.3927 -89.3146
rradius 105.512
rwrist -37.8499
rhand 7.8793 22.9468
rfingers 7.12502
rthumb 33.1123 -4.02965
lclavicle -1.46107e-014 4.77083e-015
lhumerus -24.3918 -36.2976 94.4194
lradius 120.798
lwrist 6.94819
lhand -8.12449 48.9584
lfingers 7.12502
lthumb 17.7891 798.165
rfemur -5.74084 6.96227 22.1611
rtibia 13.4808
rfoot -9.04772 -20.7927
rtoes 0.27052
lfemur -10.5476 -4.85929 -12.9206
ltibia 17.9032
lfoot -3.86313 19.3528
ltoes -29.5812
833
root 5.49728 17.6926 -9.31674 -2.69686 -60.8983 6.56588
lowerback 4.10956 -1.84047 1.30616
upperback -1.56795 -2.28422 3.62252
thorax -3.82741 -1.13705 3.18127
lowerneck -22.0455 -6.22258 -5.55057
upperneck 27.4421 -10.4427 9.45368
head 13.8672 -3.96498 2.71129
rclavicle 1.25234e-014 -9.54166e-015
rhumerus -24.9429 44.7274 -89.3508
rradius 105.425
rwrist -39.2699
rhand 8.81817 23.1912
rfingers 7.12502
rthumb 34.0046 -3.59156
lclavicle 1.25234e-014 -9.54166e-015
lhumerus -24.4122 -36.7297 94.3864
lradius 120.897
lwrist 7.67067
lhand -8.5426 48.0561
lfingers 7.12502
lthumb 17.3867 797.298
rfemur -5.81257 6.56599 22.0521
rtibia 13.5651
rfoot -9.08719 -20.3476
rtoes 0.233465
lfemur -10.5266 -5.00308 -12.984
ltibia 17.8778
lfoot -3.74349 19.4791
ltoes -28.3933
834
root 5.50078 17.6939 -9.34984 -3.00481 -60.9561 6.79642
lowerback 4.20058 -1.8439 1.33778
upperback -1.55407 -2.28464 3.59948
thorax -3.86659 -1.13791 3.14301
lowerneck -22.0374 -6.34725 -5.61098
upperneck 27.8226 -10.7039 9.53525
head 14.0655 -4.06861 2.70901
rclavicle 8.44835e-015 1.59028e-014
rhumerus -24.8891 44.9166 -89.4243
rradius 105.342
rwrist -40.3291
rhand 9.4733 23.5819
rfingers 7.12502
rthumb 34.6266 -3.0605
lclavicle 8.44835e-015 1.59028e-014
lhumerus -24.4543 -37.075 94.3397
lradius 121.035
lwrist 8.51876
lhand -8.56312 47.3471
lfingers 7.12502
lthumb 17.3669 796.591
rfemur -5.80474 6.39638 22.0386
rtibia 13.6076
rfoot -9.05777 -20.1525
rtoes -0.359776
lfemur -10.4602 -5.00534 -12.9892
ltibia 17.8506
lfoot -3.60172 19.5187
ltoes -28.1164
835
root 5.50497 17.6974 -9.38161 -3.24577 -61.0419 7.01919
lowerback 4.22579 -1.84919 1.44024
upperback -1.55284 -2.28568 3.56949
thorax -3.88474 -1.14107 3.05545
lowerneck -22.2543 -6.41839 -5.60157
upperneck 28.4362 -10.867 9.41613
head 14.3855 -4.13527 2.63316
rclavicle -2.31584e-014 -1.43125e-014
rhumerus -24.8764 45.0083 -89.5192
rradius 105.188
rwrist -41.0062
rhand 9.96038 24.1008
rfingers 7.12502
rthumb 35.0888 -2.43448
lclavicle -2.31584e-014 -1.43125e-014
lhumerus -24.5169 -37.1898 94.3244
lradius 121.101
lwrist 9.27188
lhand -8.21049 46.3955
lfingers 7.12502
lthumb 17.7063 795.609
rfemur -5.82412 6.35839 22.0261
rtibia 13.5832
rfoot -8.99679 -20.037
rtoes -0.701373
lfemur -10.4674 -4.83352 -12.9957
ltibia 17.8371
lfoot -3.235 19.4706
ltoes -28.3657
836
root 5.51032 17.7017 -9.41077 -3.44922 -61.1128 7.22868
lowerback 4.20725 -1.87361 1.57127
upperback -1.5427 -2.31218 3.56377
thorax -3.86813 -1.15774 2.97685
lowerneck -22.2835 -6.43631 -5.66948
upperneck 28.8806 -10.9313 9.37422
head 14.5959 -4.16837 2.6221
rclavicle -7.65321e-015 -1.74931e-014
rhumerus -24.8192 45.0395 -89.5241
rradius 104.943
rwrist -41.234
rhand 10.7284 24.5421
rfingers 7.12502
rthumb 35.8168 -1.81921
lclavicle -7.65321e-015 -1.74931e-014
lhumerus -24.5429 -37.1063 94.3354
lradius 121.016
lwrist 9.74865
lhand -7.84238 45.3023
lfingers 7.12502
lthumb 18.0605 794.484
rfemur -5.83903 6.42537 22.0047
rtibia 13.4867
rfoot -8.8664 -20.0439
rtoes -0.567591
lfemur -10.5183 -4.70218 -13.0047
ltibia 17.848
lfoot -2.81062 19.4597
ltoes -28.759
837
root 5.51501 17.7067 -9.43897 -3.63306 -61.1535 7.40198
lowerback 4.18279 -1.90314 1.58858
upperback -1.50988 -2.35127 3.65023
thorax -3.816 -1.17755 3.05778
lowerneck -22.1356 -6.48064 -5.85526
upperneck 29.1848 -11.0127 9.42992
head 14.7248 -4.21861 2.66857
rclavicle 8.05078e-015 1.43125e-014
rhumerus -24.7108 45.0044 -89.3081
rradius 104.685
rwrist -41.0016
rhand 11.2533 24.9769
rfingers 7.12502
rthumb 36.3141 -1.26185
lclavicle 8.05078e-015 1.43125e-014
lhumerus -24.5813 -36.9822 94.4353
lradius 120.805
lwrist 9.71247
lhand -7.57357 44.3247
lfingers 7.12502
lthumb 18.3191 793.482
rfemur -5.81218 6.47863 22.0014
rtibia 13.3421
rfoot -8.67752 -20.1284
rtoes -0.634404
lfemur -10.549 -4.73186 -12.9934
ltibia 17.8474
lfoot -2.64552 19.5173
ltoes -28.6618
838
root 5.51935 17.7122 -9.46894 -3.92922 -61.189 7.66889
lowerback 4.21059 -1.92418 1.6367
upperback -1.48114 -2.37697 3.63001
thorax -3.80368 -1.19169 3.0119
lowerneck -22.2698 -6.42513 -5.80318
upperneck 29.8118 -11.0064 9.29346
head 15.0225 -4.21482 2.6145
rclavicle 9.14409e-015 2.8625e-014
rhumerus -24.6125 44.7544 -89.1836
rradius 104.339
rwrist -40.2577
rhand 11.0106 25.5646
rfingers 7.12502
rthumb 36.0842 -0.731221
lclavicle 9.14409e-015 2.8625e-014
lhumerus -24.7287 -37.0754 94.468
lradius 120.401
lwrist 9.32337
lhand -7.65784 43.3871
lfingers 7.12502
lthumb 18.238 792.552
rfemur -5.73506 6.59191 21.9591
rtibia 13.1772
rfoot -8.47348 -20.237
rtoes -0.903917
lfemur -10.5396 -4.90073 -13.0215
ltibia 17.8324
lfoot -2.65718 19.6348
ltoes -28.1624
839
root 5.5239 17.7184 -9.49955 -4.26701 -61.2333 7.96005
lowerback 4.28732 -1.95339 1.68502
upperback -1.45595 -2.41171 3.5941
thorax -3.82306 -1.2102 2.95259
lowerneck -22.4914 -6.30148 -5.68827
upperneck 30.5183 -10.8949 9.06476
head 15.3589 -4.16777 2.53285
rclavicle -4.42296e-014 1.11319e-014
rhumerus -24.4565 44.3613 -89.0638
rradius 103.909
rwrist -39.0801
rhand 10.5013 25.9828
rfingers 7.12502
rthumb 35.6017 -0.430617
lclavicle -4.42296e-014 1.11319e-014
lhumerus -24.857 -37.255 94.4551
lradius 119.786
lwrist 8.94722
lhand -8.35451 42.7697
lfingers 7.12502
lthumb 17.5677 791.996
rfemur -5.61261 6.97678 21.9097
rtibia 12.9994
rfoot -8.31899 -20.517
rtoes -1.16239
lfemur -10.5166 -5.14906 -13.0551
ltibia 17.8363
lfoot -2.64835 19.8102
ltoes -27.973
840
root 5.52942 17.7221 -9.52909 -4.48782 -61.2578 8.14192
lowerback 4.25263 -1.97268 1.59171
upperback -1.35735 -2.44531 3.73756
thorax -3.69 -1.22491 3.1516
lowerneck -22.3623 -6.30758 -5.90167
upperneck 30.7396 -10.8626 9.0525
head 15.4427 -4.18357 2.5783
rclavicle -9.93923e-017 4.92986e-014
rhumerus -24.1333 43.894 -88.5867
rradius 103.47
rwrist -37.4132
rhand 9.86145 26.2934
rfingers 7.12502
rthumb 34.9949 -0.263803
lclavicle -9.93923e-017 4.92986e-014
lhumerus -24.7751 -37.3553 94.5704
lradius 119.018
lwrist 8.40542
lhand -9.3527 42.4447
lfingers 7.12502
lthumb 16.6069 791.754
rfemur -5.50147 7.32132 21.9073
rtibia 12.8149
rfoot -8.32906 -20.7522
rtoes -1.15392
lfemur -10.5367 -5.2944 -13.0501
ltibia 17.8671
lfoot -2.53843 19.97
ltoes -27.6727
